<mxfile host="app.diagrams.net" modified="2024-01-28T01:32:09.863Z" agent="Mozilla/5.0 (Macintosh; Intel Mac OS X 10_15_7) AppleWebKit/605.1.15 (KHTML, like Gecko) Version/17.2.1 Safari/605.1.15" version="23.0.2" etag="scTcYseNGYiY4-l8HdIo" type="github">
  <diagram name="Page-1" id="ibN5uEJDEitdcNZKuq6F">
    <mxGraphModel>
      <root>
        <mxCell id="0" />
        <mxCell id="1" parent="0" />
      </root>
    </mxGraphModel>
  </diagram>
</mxfile>
